<?xml version="1.0" encoding="iso-8859-1"?>
<!-- Generator: Adobe Illustrator 16.0.0, SVG Export Plug-In . SVG Version: 6.00 Build 0)  -->
<!DOCTYPE svg PUBLIC "-//W3C//DTD SVG 1.1//EN" "http://www.w3.org/Graphics/SVG/1.1/DTD/svg11.dtd">
<svg version="1.1" id="Capa_1" xmlns="http://www.w3.org/2000/svg" xmlns:xlink="http://www.w3.org/1999/xlink" x="0px" y="0px"
	 width="40px" height="40px" viewBox="0 0 578.305 578.305" style="enable-background:new 0 0 578.305 578.305;"
	 xml:space="preserve">
<g>
	<g>
		<path d="M462.047,469.641c-15.876,13.728-35.288,20.227-55.16,24.976
			c-38.99,9.315-78.69,11.635-118.519,9.896c-39.37,1.707-78.287-0.747-116.592-9.762c-28.256-6.646-54.052-17.821-72.032-42.075
			c-28.611-38.599-35.924-112.057,11.353-152.148c12.056-10.221,25.502-16.708,41.39-17.717c17.534-1.12,35.074-3.305,52.595-3.097
			c44.199,0.526,88.378,2.724,132.571,3.054c20.184,0.146,40.509-4.56,60.545-3.348c18.207,1.102,37.351,4.455,53.875,11.781
			c27.546,12.215,42.374,36.983,46.854,65.992C505.597,400.326,496.796,439.586,462.047,469.641z" fill="#fff"/>
	</g>
</g>
<g>
</g>
<g>
</g>
<g>
</g>
<g>
</g>
<g>
</g>
<g>
</g>
<g>
</g>
<g>
</g>
<g>
</g>
<g>
</g>
<g>
</g>
<g>
</g>
<g>
</g>
<g>
</g>
<g>
</g>
</svg>
